<svg xmlns="http://www.w3.org/2000/svg" xmlns:xlink="http://www.w3.org/1999/xlink" width="294" zoomAndPan="magnify" viewBox="0 0 220.5 283.500005" height="378" preserveAspectRatio="xMidYMid meet" version="1.0"><defs><clipPath id="ade436720d"><path d="M 17.914062 60 L 138 60 L 138 118.453125 L 17.914062 118.453125 Z M 17.914062 60 " clip-rule="nonzero"/></clipPath><clipPath id="54459b70af"><path d="M 137 0.222656 L 198 0.222656 L 198 118.453125 L 137 118.453125 Z M 137 0.222656 " clip-rule="nonzero"/></clipPath><clipPath id="f966dd47ec"><path d="M 0.324219 110.261719 L 219.574219 110.261719 L 219.574219 209 L 0.324219 209 Z M 0.324219 110.261719 " clip-rule="nonzero"/></clipPath><clipPath id="65a3005e1d"><path d="M 63 131 L 162 131 L 162 282.609375 L 63 282.609375 Z M 63 131 " clip-rule="nonzero"/></clipPath></defs><g clip-path="url(#ade436720d)"><path fill="#ffba00" d="M 17.914062 119.949219 C 17.914062 86.882812 44.714844 60.085938 77.777344 60.085938 C 110.84375 60.085938 137.640625 86.882812 137.640625 119.949219 Z M 17.914062 119.949219 " fill-opacity="1" fill-rule="nonzero"/></g><g clip-path="url(#54459b70af)"><path fill="#ea4435" d="M 197.507812 60.085938 C 197.507812 93.148438 170.707031 119.949219 137.640625 119.949219 L 137.640625 0.222656 C 170.707031 0.222656 197.507812 27.019531 197.507812 60.085938 " fill-opacity="1" fill-rule="nonzero"/></g><g clip-path="url(#f966dd47ec)"><path fill="#004aad" d="M 55.550781 208.105469 L 93.53125 208.105469 L 93.53125 142.542969 C 93.53125 131.910156 102.15625 123.285156 112.789062 123.285156 C 123.421875 123.285156 132.046875 131.914062 132.046875 142.542969 L 132.046875 208.105469 L 170.027344 208.105469 C 200.304688 208.105469 224.878906 183.527344 224.878906 153.253906 C 224.878906 125.902344 204.773438 103.175781 178.578125 99.015625 C 173.339844 67.429688 145.839844 43.242188 112.789062 43.242188 C 79.738281 43.242188 52.238281 67.429688 47 99.015625 C 20.804688 103.175781 0.699219 125.902344 0.699219 153.253906 C 0.699219 183.527344 25.273438 208.105469 55.550781 208.105469 Z M 55.550781 208.105469 " fill-opacity="1" fill-rule="nonzero"/></g><g clip-path="url(#65a3005e1d)"><path fill="#004aad" d="M 83.4375 224.820312 C 78.96875 220.351562 71.652344 220.351562 67.105469 224.820312 C 62.636719 229.367188 62.636719 236.683594 67.105469 241.152344 L 93.53125 267.578125 C 96.242188 269.890625 104.898438 280.007812 108.242188 281.136719 C 112.523438 282.894531 117.539062 282.097656 120.957031 278.671875 L 131.816406 267.808594 L 158.472656 241.152344 C 168.953125 230.238281 153.074219 214.320312 142.140625 224.820312 L 124.34375 242.617188 C 124.316406 228.800781 124.34375 142.542969 124.34375 142.542969 C 124.121094 127.40625 101.480469 127.304688 101.234375 142.542969 C 101.246094 168.25 101.234375 242.617188 101.234375 242.617188 Z M 83.4375 224.820312 " fill-opacity="1" fill-rule="nonzero"/></g></svg>