<svg xmlns="http://www.w3.org/2000/svg" xmlns:xlink="http://www.w3.org/1999/xlink" width="421" zoomAndPan="magnify" viewBox="0 0 315.75 91.5" height="122" preserveAspectRatio="xMidYMid meet" version="1.0"><defs><g/></defs><g fill="#ffbd59" fill-opacity="1"><g transform="translate(38.228026, 61.298239)"><g><path d="M 16.75 1 C 13.4375 1 10.640625 0.347656 8.359375 -0.953125 C 6.078125 -2.253906 4.34375 -4.175781 3.15625 -6.71875 C 1.976562 -9.269531 1.390625 -12.414062 1.390625 -16.15625 C 1.390625 -19.78125 1.976562 -22.835938 3.15625 -25.328125 C 4.34375 -27.828125 6.078125 -29.695312 8.359375 -30.9375 C 10.640625 -32.1875 13.410156 -32.8125 16.671875 -32.8125 C 18.578125 -32.8125 20.472656 -32.578125 22.359375 -32.109375 C 24.242188 -31.648438 26.164062 -30.929688 28.125 -29.953125 L 26.96875 -27.484375 C 23.675781 -29.179688 20.320312 -30.03125 16.90625 -30.03125 C 12.875 -30.03125 9.820312 -28.859375 7.75 -26.515625 C 5.6875 -24.171875 4.65625 -20.71875 4.65625 -16.15625 C 4.65625 -13.070312 5.125 -10.457031 6.0625 -8.3125 C 7.007812 -6.164062 8.390625 -4.539062 10.203125 -3.4375 C 12.015625 -2.34375 14.207031 -1.796875 16.78125 -1.796875 C 19.488281 -1.796875 22.34375 -2.21875 25.34375 -3.0625 L 25.34375 -13.609375 L 28.515625 -13.609375 L 28.515625 -0.921875 C 26.742188 -0.359375 24.8125 0.0976562 22.71875 0.453125 C 20.625 0.816406 18.632812 1 16.75 1 Z M 16.78125 -3.9375 C 13.65625 -3.9375 11.265625 -4.96875 9.609375 -7.03125 C 7.953125 -9.101562 7.125 -12.144531 7.125 -16.15625 C 7.125 -20.070312 7.957031 -23.003906 9.625 -24.953125 C 11.300781 -26.910156 13.753906 -27.890625 16.984375 -27.890625 C 18.472656 -27.890625 19.972656 -27.679688 21.484375 -27.265625 C 22.992188 -26.859375 24.476562 -26.253906 25.9375 -25.453125 L 24.75 -22.953125 C 23.414062 -23.691406 22.144531 -24.234375 20.9375 -24.578125 C 19.738281 -24.929688 18.53125 -25.109375 17.3125 -25.109375 C 15.71875 -25.109375 14.414062 -24.816406 13.40625 -24.234375 C 12.394531 -23.648438 11.640625 -22.695312 11.140625 -21.375 C 10.640625 -20.0625 10.390625 -18.296875 10.390625 -16.078125 C 10.390625 -12.753906 10.929688 -10.363281 12.015625 -8.90625 C 13.097656 -7.445312 14.726562 -6.71875 16.90625 -6.71875 C 17.96875 -6.71875 18.921875 -6.8125 19.765625 -7 L 19.765625 -13.609375 L 22.953125 -13.609375 L 22.953125 -4.65625 C 20.804688 -4.175781 18.75 -3.9375 16.78125 -3.9375 Z M 16.78125 -3.9375 "/></g></g></g><g fill="#ff3131" fill-opacity="1"><g transform="translate(68.624424, 61.298239)"><g/></g></g><g fill="#5e17eb" fill-opacity="1"><g transform="translate(79.568526, 61.298239)"><g><path d="M 15.640625 -31.828125 C 18.660156 -31.828125 21.242188 -31.207031 23.390625 -29.96875 C 25.535156 -28.738281 27.164062 -26.9375 28.28125 -24.5625 C 29.394531 -22.1875 29.953125 -19.316406 29.953125 -15.953125 C 29.953125 -12.554688 29.394531 -9.664062 28.28125 -7.28125 C 27.164062 -4.894531 25.535156 -3.082031 23.390625 -1.84375 C 21.242188 -0.613281 18.660156 0 15.640625 0 L 2.390625 0 L 2.390625 -31.828125 Z M 15.90625 -2.78125 C 18.132812 -2.78125 20.054688 -3.296875 21.671875 -4.328125 C 23.296875 -5.367188 24.535156 -6.875 25.390625 -8.84375 C 26.253906 -10.820312 26.6875 -13.191406 26.6875 -15.953125 C 26.6875 -18.679688 26.253906 -21.023438 25.390625 -22.984375 C 24.535156 -24.953125 23.296875 -26.453125 21.671875 -27.484375 C 20.054688 -28.523438 18.132812 -29.046875 15.90625 -29.046875 L 5.5625 -29.046875 L 5.5625 -2.78125 Z M 15.875 -26.8125 C 18.550781 -26.8125 20.613281 -25.882812 22.0625 -24.03125 C 23.507812 -22.175781 24.234375 -19.484375 24.234375 -15.953125 C 24.234375 -12.398438 23.507812 -9.6875 22.0625 -7.8125 C 20.613281 -5.945312 18.550781 -5.015625 15.875 -5.015625 L 7.953125 -5.015625 L 7.953125 -26.8125 Z M 15.109375 -7.796875 C 16.460938 -7.796875 17.5625 -8.066406 18.40625 -8.609375 C 19.257812 -9.148438 19.898438 -10.019531 20.328125 -11.21875 C 20.753906 -12.414062 20.96875 -13.992188 20.96875 -15.953125 C 20.96875 -18.785156 20.488281 -20.835938 19.53125 -22.109375 C 18.570312 -23.390625 17.097656 -24.03125 15.109375 -24.03125 L 11.140625 -24.03125 L 11.140625 -7.796875 Z M 15.109375 -7.796875 "/></g></g></g><g fill="#ff3131" fill-opacity="1"><g transform="translate(110.920639, 61.298239)"><g/></g></g><g fill="#ff3131" fill-opacity="1"><g transform="translate(121.859767, 61.298239)"><g><path d="M 15.640625 -31.828125 C 18.660156 -31.828125 21.242188 -31.207031 23.390625 -29.96875 C 25.535156 -28.738281 27.164062 -26.9375 28.28125 -24.5625 C 29.394531 -22.1875 29.953125 -19.316406 29.953125 -15.953125 C 29.953125 -12.554688 29.394531 -9.664062 28.28125 -7.28125 C 27.164062 -4.894531 25.535156 -3.082031 23.390625 -1.84375 C 21.242188 -0.613281 18.660156 0 15.640625 0 L 2.390625 0 L 2.390625 -31.828125 Z M 15.90625 -2.78125 C 18.132812 -2.78125 20.054688 -3.296875 21.671875 -4.328125 C 23.296875 -5.367188 24.535156 -6.875 25.390625 -8.84375 C 26.253906 -10.820312 26.6875 -13.191406 26.6875 -15.953125 C 26.6875 -18.679688 26.253906 -21.023438 25.390625 -22.984375 C 24.535156 -24.953125 23.296875 -26.453125 21.671875 -27.484375 C 20.054688 -28.523438 18.132812 -29.046875 15.90625 -29.046875 L 5.5625 -29.046875 L 5.5625 -2.78125 Z M 15.875 -26.8125 C 18.550781 -26.8125 20.613281 -25.882812 22.0625 -24.03125 C 23.507812 -22.175781 24.234375 -19.484375 24.234375 -15.953125 C 24.234375 -12.398438 23.507812 -9.6875 22.0625 -7.8125 C 20.613281 -5.945312 18.550781 -5.015625 15.875 -5.015625 L 7.953125 -5.015625 L 7.953125 -26.8125 Z M 15.109375 -7.796875 C 16.460938 -7.796875 17.5625 -8.066406 18.40625 -8.609375 C 19.257812 -9.148438 19.898438 -10.019531 20.328125 -11.21875 C 20.753906 -12.414062 20.96875 -13.992188 20.96875 -15.953125 C 20.96875 -18.785156 20.488281 -20.835938 19.53125 -22.109375 C 18.570312 -23.390625 17.097656 -24.03125 15.109375 -24.03125 L 11.140625 -24.03125 L 11.140625 -7.796875 Z M 15.109375 -7.796875 "/></g></g></g><g fill="#ff3131" fill-opacity="1"><g transform="translate(153.205347, 61.298239)"><g/></g></g><g fill="#00bf63" fill-opacity="1"><g transform="translate(164.149305, 61.298239)"><g><path d="M 15.640625 -31.828125 C 18.660156 -31.828125 21.242188 -31.207031 23.390625 -29.96875 C 25.535156 -28.738281 27.164062 -26.9375 28.28125 -24.5625 C 29.394531 -22.1875 29.953125 -19.316406 29.953125 -15.953125 C 29.953125 -12.554688 29.394531 -9.664062 28.28125 -7.28125 C 27.164062 -4.894531 25.535156 -3.082031 23.390625 -1.84375 C 21.242188 -0.613281 18.660156 0 15.640625 0 L 2.390625 0 L 2.390625 -31.828125 Z M 15.90625 -2.78125 C 18.132812 -2.78125 20.054688 -3.296875 21.671875 -4.328125 C 23.296875 -5.367188 24.535156 -6.875 25.390625 -8.84375 C 26.253906 -10.820312 26.6875 -13.191406 26.6875 -15.953125 C 26.6875 -18.679688 26.253906 -21.023438 25.390625 -22.984375 C 24.535156 -24.953125 23.296875 -26.453125 21.671875 -27.484375 C 20.054688 -28.523438 18.132812 -29.046875 15.90625 -29.046875 L 5.5625 -29.046875 L 5.5625 -2.78125 Z M 15.875 -26.8125 C 18.550781 -26.8125 20.613281 -25.882812 22.0625 -24.03125 C 23.507812 -22.175781 24.234375 -19.484375 24.234375 -15.953125 C 24.234375 -12.398438 23.507812 -9.6875 22.0625 -7.8125 C 20.613281 -5.945312 18.550781 -5.015625 15.875 -5.015625 L 7.953125 -5.015625 L 7.953125 -26.8125 Z M 15.109375 -7.796875 C 16.460938 -7.796875 17.5625 -8.066406 18.40625 -8.609375 C 19.257812 -9.148438 19.898438 -10.019531 20.328125 -11.21875 C 20.753906 -12.414062 20.96875 -13.992188 20.96875 -15.953125 C 20.96875 -18.785156 20.488281 -20.835938 19.53125 -22.109375 C 18.570312 -23.390625 17.097656 -24.03125 15.109375 -24.03125 L 11.140625 -24.03125 L 11.140625 -7.796875 Z M 15.109375 -7.796875 "/></g></g></g><g fill="#ff3131" fill-opacity="1"><g transform="translate(195.501418, 61.298239)"><g/></g></g><g fill="#5271ff" fill-opacity="1"><g transform="translate(206.445516, 61.298239)"><g><path d="M 5.5625 -31.828125 L 5.5625 -2.78125 L 27.84375 -2.78125 L 27.84375 0 L 2.390625 0 L 2.390625 -31.828125 Z M 11.140625 -31.828125 L 11.140625 -7.796875 L 27.84375 -7.796875 L 27.84375 -5.015625 L 7.953125 -5.015625 L 7.953125 -31.828125 Z M 11.140625 -31.828125 "/></g></g></g><g fill="#ff3131" fill-opacity="1"><g transform="translate(235.489927, 61.298239)"><g/></g></g><g fill="#000000" fill-opacity="1"><g transform="translate(246.434033, 61.298239)"><g><path d="M 16.75 1 C 13.4375 1 10.640625 0.347656 8.359375 -0.953125 C 6.078125 -2.253906 4.34375 -4.175781 3.15625 -6.71875 C 1.976562 -9.269531 1.390625 -12.414062 1.390625 -16.15625 C 1.390625 -19.78125 1.976562 -22.835938 3.15625 -25.328125 C 4.34375 -27.828125 6.078125 -29.695312 8.359375 -30.9375 C 10.640625 -32.1875 13.410156 -32.8125 16.671875 -32.8125 C 18.578125 -32.8125 20.472656 -32.578125 22.359375 -32.109375 C 24.242188 -31.648438 26.164062 -30.929688 28.125 -29.953125 L 26.96875 -27.484375 C 23.675781 -29.179688 20.320312 -30.03125 16.90625 -30.03125 C 12.875 -30.03125 9.820312 -28.859375 7.75 -26.515625 C 5.6875 -24.171875 4.65625 -20.71875 4.65625 -16.15625 C 4.65625 -13.070312 5.125 -10.457031 6.0625 -8.3125 C 7.007812 -6.164062 8.390625 -4.539062 10.203125 -3.4375 C 12.015625 -2.34375 14.207031 -1.796875 16.78125 -1.796875 C 19.488281 -1.796875 22.34375 -2.21875 25.34375 -3.0625 L 25.34375 -13.609375 L 28.515625 -13.609375 L 28.515625 -0.921875 C 26.742188 -0.359375 24.8125 0.0976562 22.71875 0.453125 C 20.625 0.816406 18.632812 1 16.75 1 Z M 16.78125 -3.9375 C 13.65625 -3.9375 11.265625 -4.96875 9.609375 -7.03125 C 7.953125 -9.101562 7.125 -12.144531 7.125 -16.15625 C 7.125 -20.070312 7.957031 -23.003906 9.625 -24.953125 C 11.300781 -26.910156 13.753906 -27.890625 16.984375 -27.890625 C 18.472656 -27.890625 19.972656 -27.679688 21.484375 -27.265625 C 22.992188 -26.859375 24.476562 -26.253906 25.9375 -25.453125 L 24.75 -22.953125 C 23.414062 -23.691406 22.144531 -24.234375 20.9375 -24.578125 C 19.738281 -24.929688 18.53125 -25.109375 17.3125 -25.109375 C 15.71875 -25.109375 14.414062 -24.816406 13.40625 -24.234375 C 12.394531 -23.648438 11.640625 -22.695312 11.140625 -21.375 C 10.640625 -20.0625 10.390625 -18.296875 10.390625 -16.078125 C 10.390625 -12.753906 10.929688 -10.363281 12.015625 -8.90625 C 13.097656 -7.445312 14.726562 -6.71875 16.90625 -6.71875 C 17.96875 -6.71875 18.921875 -6.8125 19.765625 -7 L 19.765625 -13.609375 L 22.953125 -13.609375 L 22.953125 -4.65625 C 20.804688 -4.175781 18.75 -3.9375 16.78125 -3.9375 Z M 16.78125 -3.9375 "/></g></g></g><g fill="#ffbd59" fill-opacity="1"><g transform="translate(26.024182, 76.416808)"><g><path d="M 2.75 0.078125 C 2.28125 0.078125 1.875 -0.0234375 1.53125 -0.234375 C 1.1875 -0.453125 0.921875 -0.78125 0.734375 -1.21875 C 0.546875 -1.65625 0.453125 -2.195312 0.453125 -2.84375 C 0.453125 -3.488281 0.5625 -4.03125 0.78125 -4.46875 C 1.007812 -4.90625 1.320312 -5.226562 1.71875 -5.4375 C 2.125 -5.65625 2.585938 -5.765625 3.109375 -5.765625 C 3.660156 -5.765625 4.125 -5.660156 4.5 -5.453125 C 4.882812 -5.253906 5.15625 -4.957031 5.3125 -4.5625 L 4.5 -4.0625 L 4.390625 -4.0625 C 4.273438 -4.3125 4.113281 -4.492188 3.90625 -4.609375 C 3.695312 -4.734375 3.429688 -4.796875 3.109375 -4.796875 C 2.617188 -4.796875 2.242188 -4.640625 1.984375 -4.328125 C 1.734375 -4.015625 1.609375 -3.519531 1.609375 -2.84375 C 1.609375 -2.15625 1.726562 -1.65625 1.96875 -1.34375 C 2.207031 -1.03125 2.566406 -0.875 3.046875 -0.875 C 3.453125 -0.875 3.75 -0.960938 3.9375 -1.140625 C 4.132812 -1.328125 4.234375 -1.609375 4.234375 -1.984375 L 4.234375 -2.21875 L 2.890625 -2.21875 L 2.890625 -3.140625 L 5.34375 -3.140625 L 5.34375 0 L 4.28125 0 L 4.28125 -0.765625 L 4.203125 -0.765625 C 4.078125 -0.492188 3.894531 -0.285156 3.65625 -0.140625 C 3.425781 0.00390625 3.125 0.078125 2.75 0.078125 Z M 2.75 0.078125 "/></g></g><g transform="translate(31.95142, 76.416808)"><g><path d="M 2.484375 0.078125 C 2.066406 0.078125 1.695312 -0.00390625 1.375 -0.171875 C 1.0625 -0.347656 0.816406 -0.601562 0.640625 -0.9375 C 0.472656 -1.269531 0.390625 -1.671875 0.390625 -2.140625 C 0.390625 -2.609375 0.472656 -3.007812 0.640625 -3.34375 C 0.816406 -3.675781 1.0625 -3.925781 1.375 -4.09375 C 1.695312 -4.269531 2.066406 -4.359375 2.484375 -4.359375 C 2.910156 -4.359375 3.28125 -4.269531 3.59375 -4.09375 C 3.90625 -3.925781 4.148438 -3.675781 4.328125 -3.34375 C 4.503906 -3.007812 4.59375 -2.609375 4.59375 -2.140625 C 4.59375 -1.671875 4.503906 -1.269531 4.328125 -0.9375 C 4.148438 -0.601562 3.90625 -0.347656 3.59375 -0.171875 C 3.28125 -0.00390625 2.910156 0.078125 2.484375 0.078125 Z M 2.484375 -0.828125 C 3.148438 -0.828125 3.484375 -1.265625 3.484375 -2.140625 C 3.484375 -2.585938 3.394531 -2.914062 3.21875 -3.125 C 3.050781 -3.34375 2.804688 -3.453125 2.484375 -3.453125 C 1.816406 -3.453125 1.484375 -3.015625 1.484375 -2.140625 C 1.484375 -1.265625 1.816406 -0.828125 2.484375 -0.828125 Z M 2.484375 -0.828125 "/></g></g><g transform="translate(36.934188, 76.416808)"><g><path d="M 2.484375 0.078125 C 2.066406 0.078125 1.695312 -0.00390625 1.375 -0.171875 C 1.0625 -0.347656 0.816406 -0.601562 0.640625 -0.9375 C 0.472656 -1.269531 0.390625 -1.671875 0.390625 -2.140625 C 0.390625 -2.609375 0.472656 -3.007812 0.640625 -3.34375 C 0.816406 -3.675781 1.0625 -3.925781 1.375 -4.09375 C 1.695312 -4.269531 2.066406 -4.359375 2.484375 -4.359375 C 2.910156 -4.359375 3.28125 -4.269531 3.59375 -4.09375 C 3.90625 -3.925781 4.148438 -3.675781 4.328125 -3.34375 C 4.503906 -3.007812 4.59375 -2.609375 4.59375 -2.140625 C 4.59375 -1.671875 4.503906 -1.269531 4.328125 -0.9375 C 4.148438 -0.601562 3.90625 -0.347656 3.59375 -0.171875 C 3.28125 -0.00390625 2.910156 0.078125 2.484375 0.078125 Z M 2.484375 -0.828125 C 3.148438 -0.828125 3.484375 -1.265625 3.484375 -2.140625 C 3.484375 -2.585938 3.394531 -2.914062 3.21875 -3.125 C 3.050781 -3.34375 2.804688 -3.453125 2.484375 -3.453125 C 1.816406 -3.453125 1.484375 -3.015625 1.484375 -2.140625 C 1.484375 -1.265625 1.816406 -0.828125 2.484375 -0.828125 Z M 2.484375 -0.828125 "/></g></g><g transform="translate(41.916955, 76.416808)"><g><path d="M 2.21875 1.8125 C 1.507812 1.8125 0.988281 1.707031 0.65625 1.5 C 0.320312 1.300781 0.15625 1.015625 0.15625 0.640625 C 0.15625 0.410156 0.222656 0.222656 0.359375 0.078125 C 0.503906 -0.0546875 0.710938 -0.148438 0.984375 -0.203125 L 0.984375 -0.28125 C 0.835938 -0.375 0.734375 -0.472656 0.671875 -0.578125 C 0.609375 -0.679688 0.578125 -0.804688 0.578125 -0.953125 C 0.578125 -1.296875 0.800781 -1.523438 1.25 -1.640625 L 1.25 -1.734375 C 1.019531 -1.859375 0.847656 -2.019531 0.734375 -2.21875 C 0.617188 -2.414062 0.5625 -2.648438 0.5625 -2.921875 C 0.5625 -3.210938 0.625 -3.460938 0.75 -3.671875 C 0.882812 -3.890625 1.078125 -4.054688 1.328125 -4.171875 C 1.578125 -4.296875 1.878906 -4.359375 2.234375 -4.359375 C 2.585938 -4.359375 2.875 -4.296875 3.09375 -4.171875 C 3.21875 -4.367188 3.289062 -4.59375 3.3125 -4.84375 L 3.390625 -4.890625 L 4.171875 -4.703125 C 4.148438 -4.492188 4.085938 -4.320312 3.984375 -4.1875 C 3.890625 -4.050781 3.742188 -3.925781 3.546875 -3.8125 L 3.546875 -3.734375 C 3.785156 -3.515625 3.90625 -3.21875 3.90625 -2.84375 C 3.90625 -2.582031 3.835938 -2.34375 3.703125 -2.125 C 3.578125 -1.914062 3.382812 -1.75 3.125 -1.625 C 2.875 -1.507812 2.578125 -1.453125 2.234375 -1.453125 L 2.0625 -1.453125 C 1.96875 -1.460938 1.898438 -1.46875 1.859375 -1.46875 C 1.753906 -1.46875 1.671875 -1.441406 1.609375 -1.390625 C 1.554688 -1.335938 1.53125 -1.269531 1.53125 -1.1875 C 1.53125 -1.09375 1.566406 -1.019531 1.640625 -0.96875 C 1.710938 -0.914062 1.820312 -0.890625 1.96875 -0.890625 L 2.921875 -0.84375 C 3.867188 -0.820312 4.34375 -0.414062 4.34375 0.375 C 4.34375 0.644531 4.269531 0.890625 4.125 1.109375 C 3.988281 1.328125 3.757812 1.5 3.4375 1.625 C 3.125 1.75 2.71875 1.8125 2.21875 1.8125 Z M 2.234375 -2.203125 C 2.441406 -2.203125 2.601562 -2.265625 2.71875 -2.390625 C 2.832031 -2.515625 2.890625 -2.6875 2.890625 -2.90625 C 2.890625 -3.132812 2.832031 -3.304688 2.71875 -3.421875 C 2.601562 -3.546875 2.441406 -3.609375 2.234375 -3.609375 C 2.023438 -3.609375 1.863281 -3.546875 1.75 -3.421875 C 1.632812 -3.304688 1.578125 -3.132812 1.578125 -2.90625 C 1.578125 -2.675781 1.632812 -2.5 1.75 -2.375 C 1.863281 -2.257812 2.023438 -2.203125 2.234375 -2.203125 Z M 2.21875 1.03125 C 2.582031 1.03125 2.847656 0.976562 3.015625 0.875 C 3.191406 0.769531 3.28125 0.640625 3.28125 0.484375 C 3.28125 0.347656 3.234375 0.242188 3.140625 0.171875 C 3.054688 0.109375 2.921875 0.078125 2.734375 0.078125 L 1.890625 0.03125 C 1.859375 0.03125 1.832031 0.03125 1.8125 0.03125 C 1.789062 0.03125 1.765625 0.03125 1.734375 0.03125 C 1.554688 0.03125 1.421875 0.0664062 1.328125 0.140625 C 1.234375 0.222656 1.1875 0.332031 1.1875 0.46875 C 1.1875 0.644531 1.269531 0.78125 1.4375 0.875 C 1.613281 0.976562 1.875 1.03125 2.21875 1.03125 Z M 2.21875 1.03125 "/></g></g><g transform="translate(46.375016, 76.416808)"><g><path d="M 1.78125 0.078125 C 1.394531 0.078125 1.097656 -0.0234375 0.890625 -0.234375 C 0.691406 -0.441406 0.59375 -0.757812 0.59375 -1.1875 L 0.59375 -6 L 1.671875 -6 L 1.671875 -1.21875 C 1.671875 -0.957031 1.773438 -0.828125 1.984375 -0.828125 C 2.046875 -0.828125 2.113281 -0.835938 2.1875 -0.859375 L 2.25 -0.84375 L 2.34375 -0.015625 C 2.28125 0.015625 2.195312 0.0351562 2.09375 0.046875 C 2 0.0664062 1.894531 0.078125 1.78125 0.078125 Z M 1.78125 0.078125 "/></g></g><g transform="translate(48.839193, 76.416808)"><g><path d="M 4.234375 -1.90625 L 1.484375 -1.90625 C 1.515625 -1.53125 1.617188 -1.253906 1.796875 -1.078125 C 1.972656 -0.910156 2.222656 -0.828125 2.546875 -0.828125 C 2.785156 -0.828125 2.976562 -0.875 3.125 -0.96875 C 3.28125 -1.0625 3.40625 -1.203125 3.5 -1.390625 L 3.59375 -1.390625 L 4.296875 -0.921875 C 4.160156 -0.628906 3.953125 -0.390625 3.671875 -0.203125 C 3.390625 -0.015625 3.015625 0.078125 2.546875 0.078125 C 2.097656 0.078125 1.710938 -0.00390625 1.390625 -0.171875 C 1.066406 -0.335938 0.816406 -0.585938 0.640625 -0.921875 C 0.472656 -1.253906 0.390625 -1.660156 0.390625 -2.140625 C 0.390625 -2.628906 0.476562 -3.039062 0.65625 -3.375 C 0.84375 -3.707031 1.09375 -3.953125 1.40625 -4.109375 C 1.71875 -4.273438 2.070312 -4.359375 2.46875 -4.359375 C 3.070312 -4.359375 3.535156 -4.195312 3.859375 -3.875 C 4.179688 -3.5625 4.34375 -3.09375 4.34375 -2.46875 C 4.34375 -2.238281 4.332031 -2.066406 4.3125 -1.953125 Z M 3.3125 -2.59375 C 3.300781 -2.914062 3.222656 -3.148438 3.078125 -3.296875 C 2.941406 -3.453125 2.738281 -3.53125 2.46875 -3.53125 C 1.914062 -3.53125 1.59375 -3.21875 1.5 -2.59375 Z M 3.3125 -2.59375 "/></g></g></g><g fill="#ffbd59" fill-opacity="1"><g transform="translate(53.500658, 76.416808)"><g/></g><g transform="translate(55.377941, 76.416808)"><g/></g><g transform="translate(57.255224, 76.416808)"><g/></g><g transform="translate(59.132507, 76.416808)"><g/></g><g transform="translate(61.009789, 76.416808)"><g/></g><g transform="translate(62.887072, 76.416808)"><g/></g><g transform="translate(64.764355, 76.416808)"><g/></g><g transform="translate(66.641638, 76.416808)"><g/></g><g transform="translate(68.518921, 76.416808)"><g/></g></g><g fill="#5e17eb" fill-opacity="1"><g transform="translate(70.405273, 76.416808)"><g><path d="M 2.78125 -5.671875 C 3.695312 -5.671875 4.398438 -5.429688 4.890625 -4.953125 C 5.378906 -4.484375 5.625 -3.78125 5.625 -2.84375 C 5.625 -1.90625 5.378906 -1.195312 4.890625 -0.71875 C 4.398438 -0.238281 3.695312 0 2.78125 0 L 0.734375 0 L 0.734375 -5.671875 Z M 2.71875 -0.9375 C 3.300781 -0.9375 3.738281 -1.085938 4.03125 -1.390625 C 4.320312 -1.691406 4.46875 -2.175781 4.46875 -2.84375 C 4.46875 -3.507812 4.320312 -3.988281 4.03125 -4.28125 C 3.738281 -4.582031 3.300781 -4.734375 2.71875 -4.734375 L 1.859375 -4.734375 L 1.859375 -0.9375 Z M 2.71875 -0.9375 "/></g></g><g transform="translate(76.480207, 76.416808)"><g><path d="M 0.625 0 L 0.625 -4.28125 L 1.65625 -4.28125 L 1.65625 -3.640625 L 1.75 -3.625 C 1.851562 -3.863281 1.988281 -4.039062 2.15625 -4.15625 C 2.320312 -4.269531 2.523438 -4.328125 2.765625 -4.328125 C 3.003906 -4.328125 3.1875 -4.285156 3.3125 -4.203125 L 3.140625 -3.265625 L 3.0625 -3.25 C 2.988281 -3.28125 2.914062 -3.300781 2.84375 -3.3125 C 2.78125 -3.320312 2.707031 -3.328125 2.625 -3.328125 C 2.320312 -3.328125 2.085938 -3.222656 1.921875 -3.015625 C 1.765625 -2.804688 1.6875 -2.46875 1.6875 -2 L 1.6875 0 Z M 0.625 0 "/></g></g><g transform="translate(79.842214, 76.416808)"><g><path d="M 1.15625 -4.796875 C 0.957031 -4.796875 0.796875 -4.851562 0.671875 -4.96875 C 0.554688 -5.09375 0.5 -5.242188 0.5 -5.421875 C 0.5 -5.609375 0.554688 -5.757812 0.671875 -5.875 C 0.796875 -6 0.957031 -6.0625 1.15625 -6.0625 C 1.28125 -6.0625 1.394531 -6.03125 1.5 -5.96875 C 1.601562 -5.914062 1.679688 -5.84375 1.734375 -5.75 C 1.785156 -5.65625 1.8125 -5.546875 1.8125 -5.421875 C 1.8125 -5.304688 1.785156 -5.195312 1.734375 -5.09375 C 1.679688 -5 1.601562 -4.925781 1.5 -4.875 C 1.394531 -4.820312 1.28125 -4.796875 1.15625 -4.796875 Z M 0.625 0 L 0.625 -4.28125 L 1.6875 -4.28125 L 1.6875 0 Z M 0.625 0 "/></g></g><g transform="translate(82.150922, 76.416808)"><g><path d="M 2.953125 0 L 1.671875 0 L 0.078125 -4.28125 L 1.203125 -4.28125 L 2.265625 -1.234375 L 2.359375 -1.234375 L 3.421875 -4.28125 L 4.53125 -4.28125 Z M 2.953125 0 "/></g></g><g transform="translate(86.760565, 76.416808)"><g><path d="M 4.234375 -1.90625 L 1.484375 -1.90625 C 1.515625 -1.53125 1.617188 -1.253906 1.796875 -1.078125 C 1.972656 -0.910156 2.222656 -0.828125 2.546875 -0.828125 C 2.785156 -0.828125 2.976562 -0.875 3.125 -0.96875 C 3.28125 -1.0625 3.40625 -1.203125 3.5 -1.390625 L 3.59375 -1.390625 L 4.296875 -0.921875 C 4.160156 -0.628906 3.953125 -0.390625 3.671875 -0.203125 C 3.390625 -0.015625 3.015625 0.078125 2.546875 0.078125 C 2.097656 0.078125 1.710938 -0.00390625 1.390625 -0.171875 C 1.066406 -0.335938 0.816406 -0.585938 0.640625 -0.921875 C 0.472656 -1.253906 0.390625 -1.660156 0.390625 -2.140625 C 0.390625 -2.628906 0.476562 -3.039062 0.65625 -3.375 C 0.84375 -3.707031 1.09375 -3.953125 1.40625 -4.109375 C 1.71875 -4.273438 2.070312 -4.359375 2.46875 -4.359375 C 3.070312 -4.359375 3.535156 -4.195312 3.859375 -3.875 C 4.179688 -3.5625 4.34375 -3.09375 4.34375 -2.46875 C 4.34375 -2.238281 4.332031 -2.066406 4.3125 -1.953125 Z M 3.3125 -2.59375 C 3.300781 -2.914062 3.222656 -3.148438 3.078125 -3.296875 C 2.941406 -3.453125 2.738281 -3.53125 2.46875 -3.53125 C 1.914062 -3.53125 1.59375 -3.21875 1.5 -2.59375 Z M 3.3125 -2.59375 "/></g></g></g><g fill="#5e17eb" fill-opacity="1"><g transform="translate(91.424622, 76.416808)"><g/></g><g transform="translate(93.301905, 76.416808)"><g/></g><g transform="translate(95.179188, 76.416808)"><g/></g><g transform="translate(97.05647, 76.416808)"><g/></g><g transform="translate(98.933753, 76.416808)"><g/></g><g transform="translate(100.811036, 76.416808)"><g/></g><g transform="translate(102.688319, 76.416808)"><g/></g><g transform="translate(104.565602, 76.416808)"><g/></g><g transform="translate(106.442884, 76.416808)"><g/></g><g transform="translate(108.320167, 76.416808)"><g/></g></g><g fill="#ff3131" fill-opacity="1"><g transform="translate(110.205224, 76.416808)"><g><path d="M 2.78125 -5.671875 C 3.695312 -5.671875 4.398438 -5.429688 4.890625 -4.953125 C 5.378906 -4.484375 5.625 -3.78125 5.625 -2.84375 C 5.625 -1.90625 5.378906 -1.195312 4.890625 -0.71875 C 4.398438 -0.238281 3.695312 0 2.78125 0 L 0.734375 0 L 0.734375 -5.671875 Z M 2.71875 -0.9375 C 3.300781 -0.9375 3.738281 -1.085938 4.03125 -1.390625 C 4.320312 -1.691406 4.46875 -2.175781 4.46875 -2.84375 C 4.46875 -3.507812 4.320312 -3.988281 4.03125 -4.28125 C 3.738281 -4.582031 3.300781 -4.734375 2.71875 -4.734375 L 1.859375 -4.734375 L 1.859375 -0.9375 Z M 2.71875 -0.9375 "/></g></g><g transform="translate(116.280158, 76.416808)"><g><path d="M 1.15625 -4.796875 C 0.957031 -4.796875 0.796875 -4.851562 0.671875 -4.96875 C 0.554688 -5.09375 0.5 -5.242188 0.5 -5.421875 C 0.5 -5.609375 0.554688 -5.757812 0.671875 -5.875 C 0.796875 -6 0.957031 -6.0625 1.15625 -6.0625 C 1.28125 -6.0625 1.394531 -6.03125 1.5 -5.96875 C 1.601562 -5.914062 1.679688 -5.84375 1.734375 -5.75 C 1.785156 -5.65625 1.8125 -5.546875 1.8125 -5.421875 C 1.8125 -5.304688 1.785156 -5.195312 1.734375 -5.09375 C 1.679688 -5 1.601562 -4.925781 1.5 -4.875 C 1.394531 -4.820312 1.28125 -4.796875 1.15625 -4.796875 Z M 0.625 0 L 0.625 -4.28125 L 1.6875 -4.28125 L 1.6875 0 Z M 0.625 0 "/></g></g><g transform="translate(118.588866, 76.416808)"><g><path d="M 0.625 0 L 0.625 -4.28125 L 1.65625 -4.28125 L 1.65625 -3.640625 L 1.75 -3.625 C 1.851562 -3.863281 1.988281 -4.039062 2.15625 -4.15625 C 2.320312 -4.269531 2.523438 -4.328125 2.765625 -4.328125 C 3.003906 -4.328125 3.1875 -4.285156 3.3125 -4.203125 L 3.140625 -3.265625 L 3.0625 -3.25 C 2.988281 -3.28125 2.914062 -3.300781 2.84375 -3.3125 C 2.78125 -3.320312 2.707031 -3.328125 2.625 -3.328125 C 2.320312 -3.328125 2.085938 -3.222656 1.921875 -3.015625 C 1.765625 -2.804688 1.6875 -2.46875 1.6875 -2 L 1.6875 0 Z M 0.625 0 "/></g></g><g transform="translate(121.950873, 76.416808)"><g><path d="M 4.234375 -1.90625 L 1.484375 -1.90625 C 1.515625 -1.53125 1.617188 -1.253906 1.796875 -1.078125 C 1.972656 -0.910156 2.222656 -0.828125 2.546875 -0.828125 C 2.785156 -0.828125 2.976562 -0.875 3.125 -0.96875 C 3.28125 -1.0625 3.40625 -1.203125 3.5 -1.390625 L 3.59375 -1.390625 L 4.296875 -0.921875 C 4.160156 -0.628906 3.953125 -0.390625 3.671875 -0.203125 C 3.390625 -0.015625 3.015625 0.078125 2.546875 0.078125 C 2.097656 0.078125 1.710938 -0.00390625 1.390625 -0.171875 C 1.066406 -0.335938 0.816406 -0.585938 0.640625 -0.921875 C 0.472656 -1.253906 0.390625 -1.660156 0.390625 -2.140625 C 0.390625 -2.628906 0.476562 -3.039062 0.65625 -3.375 C 0.84375 -3.707031 1.09375 -3.953125 1.40625 -4.109375 C 1.71875 -4.273438 2.070312 -4.359375 2.46875 -4.359375 C 3.070312 -4.359375 3.535156 -4.195312 3.859375 -3.875 C 4.179688 -3.5625 4.34375 -3.09375 4.34375 -2.46875 C 4.34375 -2.238281 4.332031 -2.066406 4.3125 -1.953125 Z M 3.3125 -2.59375 C 3.300781 -2.914062 3.222656 -3.148438 3.078125 -3.296875 C 2.941406 -3.453125 2.738281 -3.53125 2.46875 -3.53125 C 1.914062 -3.53125 1.59375 -3.21875 1.5 -2.59375 Z M 3.3125 -2.59375 "/></g></g><g transform="translate(126.611043, 76.416808)"><g><path d="M 2.5 0.078125 C 2.082031 0.078125 1.710938 -0.00390625 1.390625 -0.171875 C 1.078125 -0.347656 0.832031 -0.601562 0.65625 -0.9375 C 0.476562 -1.269531 0.390625 -1.671875 0.390625 -2.140625 C 0.390625 -2.609375 0.476562 -3.007812 0.65625 -3.34375 C 0.832031 -3.675781 1.078125 -3.925781 1.390625 -4.09375 C 1.710938 -4.269531 2.078125 -4.359375 2.484375 -4.359375 C 3.378906 -4.359375 3.957031 -4.03125 4.21875 -3.375 L 3.46875 -2.859375 L 3.390625 -2.859375 C 3.304688 -3.054688 3.191406 -3.203125 3.046875 -3.296875 C 2.910156 -3.398438 2.722656 -3.453125 2.484375 -3.453125 C 2.171875 -3.453125 1.925781 -3.34375 1.75 -3.125 C 1.570312 -2.914062 1.484375 -2.585938 1.484375 -2.140625 C 1.484375 -1.703125 1.570312 -1.375 1.75 -1.15625 C 1.925781 -0.9375 2.175781 -0.828125 2.5 -0.828125 C 2.726562 -0.828125 2.921875 -0.890625 3.078125 -1.015625 C 3.242188 -1.140625 3.363281 -1.320312 3.4375 -1.5625 L 3.515625 -1.5625 L 4.28125 -1.15625 C 4.175781 -0.789062 3.972656 -0.492188 3.671875 -0.265625 C 3.378906 -0.0351562 2.988281 0.078125 2.5 0.078125 Z M 2.5 0.078125 "/></g></g><g transform="translate(131.030237, 76.416808)"><g><path d="M 2.953125 -1.015625 L 3.234375 -0.21875 C 3.117188 -0.125 2.972656 -0.0507812 2.796875 0 C 2.617188 0.0507812 2.421875 0.078125 2.203125 0.078125 C 1.734375 0.078125 1.378906 -0.046875 1.140625 -0.296875 C 0.898438 -0.546875 0.78125 -0.910156 0.78125 -1.390625 L 0.78125 -3.4375 L 0.125 -3.4375 L 0.125 -4.28125 L 0.78125 -4.28125 L 0.78125 -5.125 L 1.859375 -5.296875 L 1.859375 -4.28125 L 3.078125 -4.28125 L 3.078125 -3.4375 L 1.859375 -3.4375 L 1.859375 -1.46875 C 1.859375 -1.257812 1.898438 -1.101562 1.984375 -1 C 2.078125 -0.90625 2.207031 -0.859375 2.375 -0.859375 C 2.5625 -0.859375 2.726562 -0.910156 2.875 -1.015625 Z M 2.953125 -1.015625 "/></g></g></g><g fill="#ff3131" fill-opacity="1"><g transform="translate(134.365038, 76.416808)"><g/></g><g transform="translate(136.242321, 76.416808)"><g/></g><g transform="translate(138.119603, 76.416808)"><g/></g><g transform="translate(139.996886, 76.416808)"><g/></g><g transform="translate(141.874169, 76.416808)"><g/></g><g transform="translate(143.751452, 76.416808)"><g/></g><g transform="translate(145.628735, 76.416808)"><g/></g><g transform="translate(147.506017, 76.416808)"><g/></g><g transform="translate(149.3833, 76.416808)"><g/></g><g transform="translate(151.260583, 76.416808)"><g/></g></g><g fill="#00bf63" fill-opacity="1"><g transform="translate(153.14564, 76.416808)"><g><path d="M 2.78125 -5.671875 C 3.695312 -5.671875 4.398438 -5.429688 4.890625 -4.953125 C 5.378906 -4.484375 5.625 -3.78125 5.625 -2.84375 C 5.625 -1.90625 5.378906 -1.195312 4.890625 -0.71875 C 4.398438 -0.238281 3.695312 0 2.78125 0 L 0.734375 0 L 0.734375 -5.671875 Z M 2.71875 -0.9375 C 3.300781 -0.9375 3.738281 -1.085938 4.03125 -1.390625 C 4.320312 -1.691406 4.46875 -2.175781 4.46875 -2.84375 C 4.46875 -3.507812 4.320312 -3.988281 4.03125 -4.28125 C 3.738281 -4.582031 3.300781 -4.734375 2.71875 -4.734375 L 1.859375 -4.734375 L 1.859375 -0.9375 Z M 2.71875 -0.9375 "/></g></g><g transform="translate(159.220574, 76.416808)"><g><path d="M 2.484375 0.078125 C 2.066406 0.078125 1.695312 -0.00390625 1.375 -0.171875 C 1.0625 -0.347656 0.816406 -0.601562 0.640625 -0.9375 C 0.472656 -1.269531 0.390625 -1.671875 0.390625 -2.140625 C 0.390625 -2.609375 0.472656 -3.007812 0.640625 -3.34375 C 0.816406 -3.675781 1.0625 -3.925781 1.375 -4.09375 C 1.695312 -4.269531 2.066406 -4.359375 2.484375 -4.359375 C 2.910156 -4.359375 3.28125 -4.269531 3.59375 -4.09375 C 3.90625 -3.925781 4.148438 -3.675781 4.328125 -3.34375 C 4.503906 -3.007812 4.59375 -2.609375 4.59375 -2.140625 C 4.59375 -1.671875 4.503906 -1.269531 4.328125 -0.9375 C 4.148438 -0.601562 3.90625 -0.347656 3.59375 -0.171875 C 3.28125 -0.00390625 2.910156 0.078125 2.484375 0.078125 Z M 2.484375 -0.828125 C 3.148438 -0.828125 3.484375 -1.265625 3.484375 -2.140625 C 3.484375 -2.585938 3.394531 -2.914062 3.21875 -3.125 C 3.050781 -3.34375 2.804688 -3.453125 2.484375 -3.453125 C 1.816406 -3.453125 1.484375 -3.015625 1.484375 -2.140625 C 1.484375 -1.265625 1.816406 -0.828125 2.484375 -0.828125 Z M 2.484375 -0.828125 "/></g></g><g transform="translate(164.203341, 76.416808)"><g><path d="M 2.296875 0 L 1.171875 0 L 0.15625 -4.28125 L 1.15625 -4.28125 L 1.78125 -1.390625 L 1.859375 -1.390625 L 2.671875 -4.28125 L 3.609375 -4.28125 L 4.453125 -1.390625 L 4.53125 -1.390625 L 5.140625 -4.28125 L 6.109375 -4.28125 L 5.109375 0 L 3.984375 0 L 3.171875 -2.921875 L 3.078125 -2.921875 Z M 2.296875 0 "/></g></g><g transform="translate(170.47261, 76.416808)"><g><path d="M 0.625 0 L 0.625 -4.28125 L 1.65625 -4.28125 L 1.65625 -3.65625 L 1.734375 -3.640625 C 1.992188 -4.117188 2.425781 -4.359375 3.03125 -4.359375 C 3.519531 -4.359375 3.878906 -4.222656 4.109375 -3.953125 C 4.347656 -3.691406 4.46875 -3.300781 4.46875 -2.78125 L 4.46875 0 L 3.390625 0 L 3.390625 -2.65625 C 3.390625 -2.9375 3.332031 -3.140625 3.21875 -3.265625 C 3.101562 -3.390625 2.921875 -3.453125 2.671875 -3.453125 C 2.359375 -3.453125 2.113281 -3.351562 1.9375 -3.15625 C 1.769531 -2.957031 1.6875 -2.644531 1.6875 -2.21875 L 1.6875 0 Z M 0.625 0 "/></g></g><g transform="translate(175.494245, 76.416808)"><g><path d="M 1.78125 0.078125 C 1.394531 0.078125 1.097656 -0.0234375 0.890625 -0.234375 C 0.691406 -0.441406 0.59375 -0.757812 0.59375 -1.1875 L 0.59375 -6 L 1.671875 -6 L 1.671875 -1.21875 C 1.671875 -0.957031 1.773438 -0.828125 1.984375 -0.828125 C 2.046875 -0.828125 2.113281 -0.835938 2.1875 -0.859375 L 2.25 -0.84375 L 2.34375 -0.015625 C 2.28125 0.015625 2.195312 0.0351562 2.09375 0.046875 C 2 0.0664062 1.894531 0.078125 1.78125 0.078125 Z M 1.78125 0.078125 "/></g></g><g transform="translate(177.958422, 76.416808)"><g><path d="M 2.484375 0.078125 C 2.066406 0.078125 1.695312 -0.00390625 1.375 -0.171875 C 1.0625 -0.347656 0.816406 -0.601562 0.640625 -0.9375 C 0.472656 -1.269531 0.390625 -1.671875 0.390625 -2.140625 C 0.390625 -2.609375 0.472656 -3.007812 0.640625 -3.34375 C 0.816406 -3.675781 1.0625 -3.925781 1.375 -4.09375 C 1.695312 -4.269531 2.066406 -4.359375 2.484375 -4.359375 C 2.910156 -4.359375 3.28125 -4.269531 3.59375 -4.09375 C 3.90625 -3.925781 4.148438 -3.675781 4.328125 -3.34375 C 4.503906 -3.007812 4.59375 -2.609375 4.59375 -2.140625 C 4.59375 -1.671875 4.503906 -1.269531 4.328125 -0.9375 C 4.148438 -0.601562 3.90625 -0.347656 3.59375 -0.171875 C 3.28125 -0.00390625 2.910156 0.078125 2.484375 0.078125 Z M 2.484375 -0.828125 C 3.148438 -0.828125 3.484375 -1.265625 3.484375 -2.140625 C 3.484375 -2.585938 3.394531 -2.914062 3.21875 -3.125 C 3.050781 -3.34375 2.804688 -3.453125 2.484375 -3.453125 C 1.816406 -3.453125 1.484375 -3.015625 1.484375 -2.140625 C 1.484375 -1.265625 1.816406 -0.828125 2.484375 -0.828125 Z M 2.484375 -0.828125 "/></g></g><g transform="translate(182.941189, 76.416808)"><g><path d="M 1.671875 0.078125 C 1.398438 0.078125 1.160156 0.03125 0.953125 -0.0625 C 0.753906 -0.164062 0.597656 -0.316406 0.484375 -0.515625 C 0.378906 -0.710938 0.328125 -0.945312 0.328125 -1.21875 C 0.328125 -1.46875 0.378906 -1.675781 0.484375 -1.84375 C 0.597656 -2.019531 0.765625 -2.164062 0.984375 -2.28125 C 1.210938 -2.394531 1.515625 -2.476562 1.890625 -2.53125 C 2.140625 -2.570312 2.332031 -2.617188 2.46875 -2.671875 C 2.601562 -2.722656 2.691406 -2.78125 2.734375 -2.84375 C 2.785156 -2.90625 2.8125 -2.984375 2.8125 -3.078125 C 2.8125 -3.210938 2.765625 -3.316406 2.671875 -3.390625 C 2.578125 -3.460938 2.414062 -3.5 2.1875 -3.5 C 1.945312 -3.5 1.71875 -3.445312 1.5 -3.34375 C 1.289062 -3.238281 1.109375 -3.097656 0.953125 -2.921875 L 0.875 -2.921875 L 0.421875 -3.59375 C 0.640625 -3.84375 0.90625 -4.03125 1.21875 -4.15625 C 1.53125 -4.289062 1.875 -4.359375 2.25 -4.359375 C 2.8125 -4.359375 3.21875 -4.238281 3.46875 -4 C 3.726562 -3.757812 3.859375 -3.421875 3.859375 -2.984375 L 3.859375 -1.125 C 3.859375 -0.925781 3.941406 -0.828125 4.109375 -0.828125 C 4.171875 -0.828125 4.234375 -0.835938 4.296875 -0.859375 L 4.359375 -0.84375 L 4.4375 -0.09375 C 4.375 -0.0625 4.285156 -0.03125 4.171875 0 C 4.066406 0.0195312 3.953125 0.03125 3.828125 0.03125 C 3.578125 0.03125 3.378906 -0.015625 3.234375 -0.109375 C 3.085938 -0.210938 2.984375 -0.367188 2.921875 -0.578125 L 2.84375 -0.59375 C 2.632812 -0.144531 2.242188 0.078125 1.671875 0.078125 Z M 2.015625 -0.71875 C 2.265625 -0.71875 2.460938 -0.800781 2.609375 -0.96875 C 2.753906 -1.132812 2.828125 -1.367188 2.828125 -1.671875 L 2.828125 -2.109375 L 2.75 -2.125 C 2.6875 -2.070312 2.601562 -2.023438 2.5 -1.984375 C 2.394531 -1.953125 2.242188 -1.921875 2.046875 -1.890625 C 1.816406 -1.847656 1.648438 -1.78125 1.546875 -1.6875 C 1.441406 -1.59375 1.390625 -1.457031 1.390625 -1.28125 C 1.390625 -1.101562 1.441406 -0.960938 1.546875 -0.859375 C 1.660156 -0.765625 1.816406 -0.71875 2.015625 -0.71875 Z M 2.015625 -0.71875 "/></g></g><g transform="translate(187.461437, 76.416808)"><g><path d="M 2.109375 0.078125 C 1.773438 0.078125 1.476562 0 1.21875 -0.15625 C 0.957031 -0.320312 0.753906 -0.570312 0.609375 -0.90625 C 0.460938 -1.238281 0.390625 -1.648438 0.390625 -2.140625 C 0.390625 -2.628906 0.460938 -3.039062 0.609375 -3.375 C 0.765625 -3.707031 0.972656 -3.953125 1.234375 -4.109375 C 1.503906 -4.273438 1.816406 -4.359375 2.171875 -4.359375 C 2.441406 -4.359375 2.671875 -4.3125 2.859375 -4.21875 C 3.054688 -4.132812 3.222656 -3.992188 3.359375 -3.796875 L 3.4375 -3.8125 L 3.4375 -6 L 4.515625 -6 L 4.515625 0 L 3.4375 0 L 3.4375 -0.5625 L 3.359375 -0.578125 C 3.242188 -0.367188 3.082031 -0.207031 2.875 -0.09375 C 2.664062 0.0195312 2.410156 0.078125 2.109375 0.078125 Z M 2.46875 -0.828125 C 2.769531 -0.828125 3.007812 -0.9375 3.1875 -1.15625 C 3.363281 -1.375 3.453125 -1.703125 3.453125 -2.140625 C 3.453125 -2.578125 3.363281 -2.90625 3.1875 -3.125 C 3.007812 -3.34375 2.769531 -3.453125 2.46875 -3.453125 C 2.144531 -3.453125 1.898438 -3.34375 1.734375 -3.125 C 1.566406 -2.914062 1.484375 -2.585938 1.484375 -2.140625 C 1.484375 -1.691406 1.566406 -1.359375 1.734375 -1.140625 C 1.898438 -0.929688 2.144531 -0.828125 2.46875 -0.828125 Z M 2.46875 -0.828125 "/></g></g></g><g fill="#00bf63" fill-opacity="1"><g transform="translate(192.603563, 76.416808)"><g/></g><g transform="translate(194.480846, 76.416808)"><g/></g><g transform="translate(196.358129, 76.416808)"><g/></g><g transform="translate(198.235412, 76.416808)"><g/></g><g transform="translate(200.112694, 76.416808)"><g/></g><g transform="translate(201.989977, 76.416808)"><g/></g><g transform="translate(203.86726, 76.416808)"><g/></g><g transform="translate(205.744543, 76.416808)"><g/></g><g transform="translate(207.621826, 76.416808)"><g/></g><g transform="translate(209.499108, 76.416808)"><g/></g><g transform="translate(211.376391, 76.416808)"><g/></g><g transform="translate(213.253674, 76.416808)"><g/></g></g><g fill="#5271ff" fill-opacity="1"><g transform="translate(215.13614, 76.416808)"><g><path d="M 1.859375 -5.671875 L 1.859375 -0.9375 L 4.40625 -0.9375 L 4.40625 0 L 0.734375 0 L 0.734375 -5.671875 Z M 1.859375 -5.671875 "/></g></g><g transform="translate(219.738009, 76.416808)"><g><path d="M 1.15625 -4.796875 C 0.957031 -4.796875 0.796875 -4.851562 0.671875 -4.96875 C 0.554688 -5.09375 0.5 -5.242188 0.5 -5.421875 C 0.5 -5.609375 0.554688 -5.757812 0.671875 -5.875 C 0.796875 -6 0.957031 -6.0625 1.15625 -6.0625 C 1.28125 -6.0625 1.394531 -6.03125 1.5 -5.96875 C 1.601562 -5.914062 1.679688 -5.84375 1.734375 -5.75 C 1.785156 -5.65625 1.8125 -5.546875 1.8125 -5.421875 C 1.8125 -5.304688 1.785156 -5.195312 1.734375 -5.09375 C 1.679688 -5 1.601562 -4.925781 1.5 -4.875 C 1.394531 -4.820312 1.28125 -4.796875 1.15625 -4.796875 Z M 0.625 0 L 0.625 -4.28125 L 1.6875 -4.28125 L 1.6875 0 Z M 0.625 0 "/></g></g><g transform="translate(222.046717, 76.416808)"><g><path d="M 0.625 0 L 0.625 -4.28125 L 1.65625 -4.28125 L 1.65625 -3.65625 L 1.734375 -3.640625 C 1.992188 -4.117188 2.425781 -4.359375 3.03125 -4.359375 C 3.519531 -4.359375 3.878906 -4.222656 4.109375 -3.953125 C 4.347656 -3.691406 4.46875 -3.300781 4.46875 -2.78125 L 4.46875 0 L 3.390625 0 L 3.390625 -2.65625 C 3.390625 -2.9375 3.332031 -3.140625 3.21875 -3.265625 C 3.101562 -3.390625 2.921875 -3.453125 2.671875 -3.453125 C 2.359375 -3.453125 2.113281 -3.351562 1.9375 -3.15625 C 1.769531 -2.957031 1.6875 -2.644531 1.6875 -2.21875 L 1.6875 0 Z M 0.625 0 "/></g></g><g transform="translate(227.068351, 76.416808)"><g><path d="M 0.625 0 L 0.625 -6 L 1.6875 -6 L 1.6875 -2.671875 L 1.796875 -2.671875 L 3.03125 -4.28125 L 4.125 -4.28125 L 4.125 -4.1875 L 2.671875 -2.3125 L 4.296875 -0.09375 L 4.296875 0 L 3.15625 0 L 1.796875 -1.8125 L 1.6875 -1.8125 L 1.6875 0 Z M 0.625 0 "/></g></g></g><g fill="#5271ff" fill-opacity="1"><g transform="translate(231.377418, 76.416808)"><g/></g><g transform="translate(233.254701, 76.416808)"><g/></g><g transform="translate(235.131984, 76.416808)"><g/></g><g transform="translate(237.009267, 76.416808)"><g/></g><g transform="translate(238.88655, 76.416808)"><g/></g><g transform="translate(240.763832, 76.416808)"><g/></g><g transform="translate(242.641115, 76.416808)"><g/></g></g><g fill="#000000" fill-opacity="1"><g transform="translate(244.519694, 76.416808)"><g><path d="M 2.75 0.078125 C 2.28125 0.078125 1.875 -0.0234375 1.53125 -0.234375 C 1.1875 -0.453125 0.921875 -0.78125 0.734375 -1.21875 C 0.546875 -1.65625 0.453125 -2.195312 0.453125 -2.84375 C 0.453125 -3.488281 0.5625 -4.03125 0.78125 -4.46875 C 1.007812 -4.90625 1.320312 -5.226562 1.71875 -5.4375 C 2.125 -5.65625 2.585938 -5.765625 3.109375 -5.765625 C 3.660156 -5.765625 4.125 -5.660156 4.5 -5.453125 C 4.882812 -5.253906 5.15625 -4.957031 5.3125 -4.5625 L 4.5 -4.0625 L 4.390625 -4.0625 C 4.273438 -4.3125 4.113281 -4.492188 3.90625 -4.609375 C 3.695312 -4.734375 3.429688 -4.796875 3.109375 -4.796875 C 2.617188 -4.796875 2.242188 -4.640625 1.984375 -4.328125 C 1.734375 -4.015625 1.609375 -3.519531 1.609375 -2.84375 C 1.609375 -2.15625 1.726562 -1.65625 1.96875 -1.34375 C 2.207031 -1.03125 2.566406 -0.875 3.046875 -0.875 C 3.453125 -0.875 3.75 -0.960938 3.9375 -1.140625 C 4.132812 -1.328125 4.234375 -1.609375 4.234375 -1.984375 L 4.234375 -2.21875 L 2.890625 -2.21875 L 2.890625 -3.140625 L 5.34375 -3.140625 L 5.34375 0 L 4.28125 0 L 4.28125 -0.765625 L 4.203125 -0.765625 C 4.078125 -0.492188 3.894531 -0.285156 3.65625 -0.140625 C 3.425781 0.00390625 3.125 0.078125 2.75 0.078125 Z M 2.75 0.078125 "/></g></g><g transform="translate(250.446933, 76.416808)"><g><path d="M 4.234375 -1.90625 L 1.484375 -1.90625 C 1.515625 -1.53125 1.617188 -1.253906 1.796875 -1.078125 C 1.972656 -0.910156 2.222656 -0.828125 2.546875 -0.828125 C 2.785156 -0.828125 2.976562 -0.875 3.125 -0.96875 C 3.28125 -1.0625 3.40625 -1.203125 3.5 -1.390625 L 3.59375 -1.390625 L 4.296875 -0.921875 C 4.160156 -0.628906 3.953125 -0.390625 3.671875 -0.203125 C 3.390625 -0.015625 3.015625 0.078125 2.546875 0.078125 C 2.097656 0.078125 1.710938 -0.00390625 1.390625 -0.171875 C 1.066406 -0.335938 0.816406 -0.585938 0.640625 -0.921875 C 0.472656 -1.253906 0.390625 -1.660156 0.390625 -2.140625 C 0.390625 -2.628906 0.476562 -3.039062 0.65625 -3.375 C 0.84375 -3.707031 1.09375 -3.953125 1.40625 -4.109375 C 1.71875 -4.273438 2.070312 -4.359375 2.46875 -4.359375 C 3.070312 -4.359375 3.535156 -4.195312 3.859375 -3.875 C 4.179688 -3.5625 4.34375 -3.09375 4.34375 -2.46875 C 4.34375 -2.238281 4.332031 -2.066406 4.3125 -1.953125 Z M 3.3125 -2.59375 C 3.300781 -2.914062 3.222656 -3.148438 3.078125 -3.296875 C 2.941406 -3.453125 2.738281 -3.53125 2.46875 -3.53125 C 1.914062 -3.53125 1.59375 -3.21875 1.5 -2.59375 Z M 3.3125 -2.59375 "/></g></g><g transform="translate(255.107103, 76.416808)"><g><path d="M 0.625 0 L 0.625 -4.28125 L 1.65625 -4.28125 L 1.65625 -3.65625 L 1.734375 -3.640625 C 1.992188 -4.117188 2.425781 -4.359375 3.03125 -4.359375 C 3.519531 -4.359375 3.878906 -4.222656 4.109375 -3.953125 C 4.347656 -3.691406 4.46875 -3.300781 4.46875 -2.78125 L 4.46875 0 L 3.390625 0 L 3.390625 -2.65625 C 3.390625 -2.9375 3.332031 -3.140625 3.21875 -3.265625 C 3.101562 -3.390625 2.921875 -3.453125 2.671875 -3.453125 C 2.359375 -3.453125 2.113281 -3.351562 1.9375 -3.15625 C 1.769531 -2.957031 1.6875 -2.644531 1.6875 -2.21875 L 1.6875 0 Z M 0.625 0 "/></g></g><g transform="translate(260.128737, 76.416808)"><g><path d="M 4.234375 -1.90625 L 1.484375 -1.90625 C 1.515625 -1.53125 1.617188 -1.253906 1.796875 -1.078125 C 1.972656 -0.910156 2.222656 -0.828125 2.546875 -0.828125 C 2.785156 -0.828125 2.976562 -0.875 3.125 -0.96875 C 3.28125 -1.0625 3.40625 -1.203125 3.5 -1.390625 L 3.59375 -1.390625 L 4.296875 -0.921875 C 4.160156 -0.628906 3.953125 -0.390625 3.671875 -0.203125 C 3.390625 -0.015625 3.015625 0.078125 2.546875 0.078125 C 2.097656 0.078125 1.710938 -0.00390625 1.390625 -0.171875 C 1.066406 -0.335938 0.816406 -0.585938 0.640625 -0.921875 C 0.472656 -1.253906 0.390625 -1.660156 0.390625 -2.140625 C 0.390625 -2.628906 0.476562 -3.039062 0.65625 -3.375 C 0.84375 -3.707031 1.09375 -3.953125 1.40625 -4.109375 C 1.71875 -4.273438 2.070312 -4.359375 2.46875 -4.359375 C 3.070312 -4.359375 3.535156 -4.195312 3.859375 -3.875 C 4.179688 -3.5625 4.34375 -3.09375 4.34375 -2.46875 C 4.34375 -2.238281 4.332031 -2.066406 4.3125 -1.953125 Z M 3.3125 -2.59375 C 3.300781 -2.914062 3.222656 -3.148438 3.078125 -3.296875 C 2.941406 -3.453125 2.738281 -3.53125 2.46875 -3.53125 C 1.914062 -3.53125 1.59375 -3.21875 1.5 -2.59375 Z M 3.3125 -2.59375 "/></g></g><g transform="translate(264.788907, 76.416808)"><g><path d="M 0.625 0 L 0.625 -4.28125 L 1.65625 -4.28125 L 1.65625 -3.640625 L 1.75 -3.625 C 1.851562 -3.863281 1.988281 -4.039062 2.15625 -4.15625 C 2.320312 -4.269531 2.523438 -4.328125 2.765625 -4.328125 C 3.003906 -4.328125 3.1875 -4.285156 3.3125 -4.203125 L 3.140625 -3.265625 L 3.0625 -3.25 C 2.988281 -3.28125 2.914062 -3.300781 2.84375 -3.3125 C 2.78125 -3.320312 2.707031 -3.328125 2.625 -3.328125 C 2.320312 -3.328125 2.085938 -3.222656 1.921875 -3.015625 C 1.765625 -2.804688 1.6875 -2.46875 1.6875 -2 L 1.6875 0 Z M 0.625 0 "/></g></g><g transform="translate(268.150915, 76.416808)"><g><path d="M 1.671875 0.078125 C 1.398438 0.078125 1.160156 0.03125 0.953125 -0.0625 C 0.753906 -0.164062 0.597656 -0.316406 0.484375 -0.515625 C 0.378906 -0.710938 0.328125 -0.945312 0.328125 -1.21875 C 0.328125 -1.46875 0.378906 -1.675781 0.484375 -1.84375 C 0.597656 -2.019531 0.765625 -2.164062 0.984375 -2.28125 C 1.210938 -2.394531 1.515625 -2.476562 1.890625 -2.53125 C 2.140625 -2.570312 2.332031 -2.617188 2.46875 -2.671875 C 2.601562 -2.722656 2.691406 -2.78125 2.734375 -2.84375 C 2.785156 -2.90625 2.8125 -2.984375 2.8125 -3.078125 C 2.8125 -3.210938 2.765625 -3.316406 2.671875 -3.390625 C 2.578125 -3.460938 2.414062 -3.5 2.1875 -3.5 C 1.945312 -3.5 1.71875 -3.445312 1.5 -3.34375 C 1.289062 -3.238281 1.109375 -3.097656 0.953125 -2.921875 L 0.875 -2.921875 L 0.421875 -3.59375 C 0.640625 -3.84375 0.90625 -4.03125 1.21875 -4.15625 C 1.53125 -4.289062 1.875 -4.359375 2.25 -4.359375 C 2.8125 -4.359375 3.21875 -4.238281 3.46875 -4 C 3.726562 -3.757812 3.859375 -3.421875 3.859375 -2.984375 L 3.859375 -1.125 C 3.859375 -0.925781 3.941406 -0.828125 4.109375 -0.828125 C 4.171875 -0.828125 4.234375 -0.835938 4.296875 -0.859375 L 4.359375 -0.84375 L 4.4375 -0.09375 C 4.375 -0.0625 4.285156 -0.03125 4.171875 0 C 4.066406 0.0195312 3.953125 0.03125 3.828125 0.03125 C 3.578125 0.03125 3.378906 -0.015625 3.234375 -0.109375 C 3.085938 -0.210938 2.984375 -0.367188 2.921875 -0.578125 L 2.84375 -0.59375 C 2.632812 -0.144531 2.242188 0.078125 1.671875 0.078125 Z M 2.015625 -0.71875 C 2.265625 -0.71875 2.460938 -0.800781 2.609375 -0.96875 C 2.753906 -1.132812 2.828125 -1.367188 2.828125 -1.671875 L 2.828125 -2.109375 L 2.75 -2.125 C 2.6875 -2.070312 2.601562 -2.023438 2.5 -1.984375 C 2.394531 -1.953125 2.242188 -1.921875 2.046875 -1.890625 C 1.816406 -1.847656 1.648438 -1.78125 1.546875 -1.6875 C 1.441406 -1.59375 1.390625 -1.457031 1.390625 -1.28125 C 1.390625 -1.101562 1.441406 -0.960938 1.546875 -0.859375 C 1.660156 -0.765625 1.816406 -0.71875 2.015625 -0.71875 Z M 2.015625 -0.71875 "/></g></g><g transform="translate(272.671163, 76.416808)"><g><path d="M 2.953125 -1.015625 L 3.234375 -0.21875 C 3.117188 -0.125 2.972656 -0.0507812 2.796875 0 C 2.617188 0.0507812 2.421875 0.078125 2.203125 0.078125 C 1.734375 0.078125 1.378906 -0.046875 1.140625 -0.296875 C 0.898438 -0.546875 0.78125 -0.910156 0.78125 -1.390625 L 0.78125 -3.4375 L 0.125 -3.4375 L 0.125 -4.28125 L 0.78125 -4.28125 L 0.78125 -5.125 L 1.859375 -5.296875 L 1.859375 -4.28125 L 3.078125 -4.28125 L 3.078125 -3.4375 L 1.859375 -3.4375 L 1.859375 -1.46875 C 1.859375 -1.257812 1.898438 -1.101562 1.984375 -1 C 2.078125 -0.90625 2.207031 -0.859375 2.375 -0.859375 C 2.5625 -0.859375 2.726562 -0.910156 2.875 -1.015625 Z M 2.953125 -1.015625 "/></g></g><g transform="translate(276.002077, 76.416808)"><g><path d="M 2.484375 0.078125 C 2.066406 0.078125 1.695312 -0.00390625 1.375 -0.171875 C 1.0625 -0.347656 0.816406 -0.601562 0.640625 -0.9375 C 0.472656 -1.269531 0.390625 -1.671875 0.390625 -2.140625 C 0.390625 -2.609375 0.472656 -3.007812 0.640625 -3.34375 C 0.816406 -3.675781 1.0625 -3.925781 1.375 -4.09375 C 1.695312 -4.269531 2.066406 -4.359375 2.484375 -4.359375 C 2.910156 -4.359375 3.28125 -4.269531 3.59375 -4.09375 C 3.90625 -3.925781 4.148438 -3.675781 4.328125 -3.34375 C 4.503906 -3.007812 4.59375 -2.609375 4.59375 -2.140625 C 4.59375 -1.671875 4.503906 -1.269531 4.328125 -0.9375 C 4.148438 -0.601562 3.90625 -0.347656 3.59375 -0.171875 C 3.28125 -0.00390625 2.910156 0.078125 2.484375 0.078125 Z M 2.484375 -0.828125 C 3.148438 -0.828125 3.484375 -1.265625 3.484375 -2.140625 C 3.484375 -2.585938 3.394531 -2.914062 3.21875 -3.125 C 3.050781 -3.34375 2.804688 -3.453125 2.484375 -3.453125 C 1.816406 -3.453125 1.484375 -3.015625 1.484375 -2.140625 C 1.484375 -1.265625 1.816406 -0.828125 2.484375 -0.828125 Z M 2.484375 -0.828125 "/></g></g><g transform="translate(280.984844, 76.416808)"><g><path d="M 0.625 0 L 0.625 -4.28125 L 1.65625 -4.28125 L 1.65625 -3.640625 L 1.75 -3.625 C 1.851562 -3.863281 1.988281 -4.039062 2.15625 -4.15625 C 2.320312 -4.269531 2.523438 -4.328125 2.765625 -4.328125 C 3.003906 -4.328125 3.1875 -4.285156 3.3125 -4.203125 L 3.140625 -3.265625 L 3.0625 -3.25 C 2.988281 -3.28125 2.914062 -3.300781 2.84375 -3.3125 C 2.78125 -3.320312 2.707031 -3.328125 2.625 -3.328125 C 2.320312 -3.328125 2.085938 -3.222656 1.921875 -3.015625 C 1.765625 -2.804688 1.6875 -2.46875 1.6875 -2 L 1.6875 0 Z M 0.625 0 "/></g></g></g><g fill="#000000" fill-opacity="1"><g transform="translate(284.350742, 76.416808)"><g/></g></g></svg>